# xmcd
#
# Track frame offsets: 
#        150
#        6900
#        39825
#        72900
#        106575
#        139200
#        162450
#        196350
#
# Disc length: 3293 seconds
#
# Revision: 0
# Processed by: cddbd v1.5.2PL0 Copyright (c) Steve Scherf et al.
# Submitted via: ExactAudioCopy v0.95b3
#
DISCID=640cdb08
DTITLE=Dave Brubeck  - Buried Treasures
DYEAR=1900
DGENRE=
TTITLE0=Introduction
TTITLE1=Mr. Broadway
TTITLE2=Koto Song
TTITLE3=Sweet Georgia Brown
TTITLE4=Forty Days
TTITLE5=Take Five
TTITLE6=You Go To My Head
TTITLE7=St. Louis Blues
EXTD=
EXTT0=
EXTT1=
EXTT2=
EXTT3=
EXTT4=
EXTT5=
EXTT6=
EXTT7=
PLAYORDER=
